<?xml version="1.0" encoding="UTF-8"?><svg id="Layer_1" xmlns="http://www.w3.org/2000/svg" viewBox="0 0 349.48 76.68"><circle cx="47" cy="11.23" r="10.73" style="fill:none; stroke:#231f20; stroke-miterlimit:10;"/><circle cx="22.77" cy="35.07" r="10.73" style="fill:none; stroke:#231f20; stroke-miterlimit:10;"/><circle cx="73.09" cy="35.07" r="10.73" style="fill:#ffde17; stroke:#231f20; stroke-miterlimit:10;"/><circle cx="11.23" cy="62.74" r="10.73" style="fill:none; stroke:#231f20; stroke-miterlimit:10;"/><circle cx="36.04" cy="62.74" r="10.73" style="fill:none; stroke:#231f20; stroke-miterlimit:10;"/><line x1="38.4" y1="17.65" x2="26.67" y2="25.07" style="fill:none; stroke:#231f20; stroke-miterlimit:10;"/><line x1="17.54" y1="44.44" x2="14.09" y2="52.01" style="fill:none; stroke:#231f20; stroke-miterlimit:10;"/><line x1="28.35" y1="44.23" x2="32.25" y2="52.01" style="fill:none; stroke:#231f20; stroke-miterlimit:10;"/><line x1="55.22" y1="18.62" x2="68.66" y2="25.3" style="fill:none; stroke:#231f20; stroke-miterlimit:10;"/><text transform="translate(42.61 15.14)" style="fill:#231f20; font-family:monospace; font-size:12px;"><tspan x="0" y="0">4</tspan></text><text transform="translate(69.48 38.3)" style="fill:#231f20; font-family:monospace; font-size:12px;"><tspan x="0" y="0">6</tspan></text><text transform="translate(18.49 38.47)" style="fill:#231f20; font-family:monospace; font-size:12px;"><tspan x="0" y="0">5</tspan></text><text transform="translate(32.25 66.7)" style="fill:#231f20; font-family:monospace; font-size:12px;"><tspan x="0" y="0">8</tspan></text><text transform="translate(7.31 66.87)" style="fill:#231f20; font-family:monospace; font-size:12px;"><tspan x="0" y="0">7</tspan></text><circle cx="62.35" cy="63.42" r="10.73" style="fill:none; stroke:#231f20; stroke-miterlimit:10;"/><line x1="68.66" y1="45.12" x2="65.21" y2="52.69" style="fill:none; stroke:#231f20; stroke-miterlimit:10;"/><text transform="translate(58.43 67.55)" style="fill:#231f20; font-family:monospace; font-size:12px;"><tspan x="0" y="0">9</tspan></text><circle cx="88.67" cy="63.42" r="10.73" style="fill:#ed1c24; stroke:#231f20; stroke-miterlimit:10;"/><text transform="translate(84.75 67.55)" style="fill:#231f20; font-family:monospace; font-size:12px;"><tspan x="0" y="0">1</tspan></text><line x1="79.67" y1="44.34" x2="83.82" y2="53.47" style="fill:none; stroke:#231f20; stroke-miterlimit:10;"/><circle cx="173.02" cy="11.23" r="10.73" style="fill:#ffde17; stroke:#231f20; stroke-miterlimit:10;"/><circle cx="148.79" cy="35.07" r="10.73" style="fill:none; stroke:#231f20; stroke-miterlimit:10;"/><circle cx="199.11" cy="35.07" r="10.73" style="fill:#ed1c24; stroke:#231f20; stroke-miterlimit:10;"/><circle cx="137.25" cy="62.74" r="10.73" style="fill:none; stroke:#231f20; stroke-miterlimit:10;"/><circle cx="162.06" cy="62.74" r="10.73" style="fill:none; stroke:#231f20; stroke-miterlimit:10;"/><line x1="164.42" y1="17.65" x2="152.69" y2="25.07" style="fill:none; stroke:#231f20; stroke-miterlimit:10;"/><line x1="143.56" y1="44.44" x2="140.11" y2="52.01" style="fill:none; stroke:#231f20; stroke-miterlimit:10;"/><line x1="154.37" y1="44.23" x2="158.27" y2="52.01" style="fill:none; stroke:#231f20; stroke-miterlimit:10;"/><line x1="181.24" y1="18.62" x2="194.68" y2="25.3" style="fill:none; stroke:#231f20; stroke-miterlimit:10;"/><text transform="translate(168.63 15.14)" style="fill:#231f20; font-family:monospace; font-size:12px;"><tspan x="0" y="0">4</tspan></text><text transform="translate(195.5 38.3)" style="fill:#231f20; font-family:monospace; font-size:12px;"><tspan x="0" y="0">1</tspan></text><text transform="translate(144.51 38.47)" style="fill:#231f20; font-family:monospace; font-size:12px;"><tspan x="0" y="0">5</tspan></text><text transform="translate(158.27 66.7)" style="fill:#231f20; font-family:monospace; font-size:12px;"><tspan x="0" y="0">8</tspan></text><text transform="translate(133.33 66.87)" style="fill:#231f20; font-family:monospace; font-size:12px;"><tspan x="0" y="0">7</tspan></text><circle cx="188.37" cy="63.42" r="10.73" style="fill:none; stroke:#231f20; stroke-miterlimit:10;"/><line x1="194.68" y1="45.12" x2="191.23" y2="52.69" style="fill:none; stroke:#231f20; stroke-miterlimit:10;"/><text transform="translate(184.45 67.55)" style="fill:#231f20; font-family:monospace; font-size:12px;"><tspan x="0" y="0">9</tspan></text><circle cx="214.69" cy="63.42" r="10.73" style="fill:none; stroke:#231f20; stroke-miterlimit:10;"/><text transform="translate(210.77 67.55)" style="fill:#231f20; font-family:monospace; font-size:12px;"><tspan x="0" y="0">6</tspan></text><line x1="205.69" y1="44.34" x2="209.84" y2="53.47" style="fill:none; stroke:#231f20; stroke-miterlimit:10;"/><circle cx="296.57" cy="12.2" r="10.73" style="fill:none; stroke:#231f20; stroke-miterlimit:10;"/><circle cx="272.34" cy="36.04" r="10.73" style="fill:none; stroke:#231f20; stroke-miterlimit:10;"/><circle cx="322.66" cy="36.04" r="10.73" style="fill:none; stroke:#231f20; stroke-miterlimit:10;"/><circle cx="260.81" cy="63.71" r="10.73" style="fill:none; stroke:#231f20; stroke-miterlimit:10;"/><circle cx="285.61" cy="63.71" r="10.73" style="fill:none; stroke:#231f20; stroke-miterlimit:10;"/><line x1="287.98" y1="18.62" x2="276.25" y2="26.04" style="fill:none; stroke:#231f20; stroke-miterlimit:10;"/><line x1="267.11" y1="45.41" x2="263.66" y2="52.98" style="fill:none; stroke:#231f20; stroke-miterlimit:10;"/><line x1="277.92" y1="45.2" x2="281.82" y2="52.98" style="fill:none; stroke:#231f20; stroke-miterlimit:10;"/><line x1="304.8" y1="19.59" x2="318.23" y2="26.27" style="fill:none; stroke:#231f20; stroke-miterlimit:10;"/><text transform="translate(292.18 16.11)" style="fill:#231f20; font-family:monospace; font-size:12px;"><tspan x="0" y="0">1</tspan></text><text transform="translate(319.06 39.27)" style="fill:#231f20; font-family:monospace; font-size:12px;"><tspan x="0" y="0">4</tspan></text><text transform="translate(268.06 39.44)" style="fill:#231f20; font-family:monospace; font-size:12px;"><tspan x="0" y="0">5</tspan></text><text transform="translate(281.82 67.67)" style="fill:#231f20; font-family:monospace; font-size:12px;"><tspan x="0" y="0">8</tspan></text><text transform="translate(256.89 67.84)" style="fill:#231f20; font-family:monospace; font-size:12px;"><tspan x="0" y="0">7</tspan></text><circle cx="311.93" cy="64.39" r="10.73" style="fill:none; stroke:#231f20; stroke-miterlimit:10;"/><line x1="318.23" y1="46.09" x2="314.78" y2="53.66" style="fill:none; stroke:#231f20; stroke-miterlimit:10;"/><text transform="translate(308.01 68.52)" style="fill:#231f20; font-family:monospace; font-size:12px;"><tspan x="0" y="0">9</tspan></text><circle cx="338.24" cy="64.39" r="10.73" style="fill:none; stroke:#231f20; stroke-miterlimit:10;"/><text transform="translate(334.32 68.52)" style="fill:#231f20; font-family:monospace; font-size:12px;"><tspan x="0" y="0">6</tspan></text><line x1="329.24" y1="45.31" x2="333.4" y2="54.44" style="fill:none; stroke:#231f20; stroke-miterlimit:10;"/><g><line x1="96.34" y1="36.04" x2="122.58" y2="36.04" style="fill:none; stroke:#231f20; stroke-miterlimit:10;"/><polygon points="121.12 41.03 129.75 36.04 121.12 31.05 121.12 41.03" style="fill:#231f20;"/></g><g><line x1="219.02" y1="36.04" x2="245.26" y2="36.04" style="fill:none; stroke:#231f20; stroke-miterlimit:10;"/><polygon points="243.8 41.03 252.43 36.04 243.8 31.05 243.8 41.03" style="fill:#231f20;"/></g></svg>