<?xml version="1.0" encoding="UTF-8"?><svg id="Layer_1" xmlns="http://www.w3.org/2000/svg" viewBox="0 0 261.06 75.4"><circle cx="37.89" cy="11.23" r="10.73" style="fill:#ed1c24; stroke:#231f20; stroke-miterlimit:10;"/><circle cx="22.77" cy="35.18" r="10.73" style="fill:#ffde17; stroke:#231f20; stroke-miterlimit:10;"/><circle cx="52.23" cy="35.18" r="10.73" style="fill:none; stroke:#231f20; stroke-miterlimit:10;"/><circle cx="11.23" cy="62.85" r="10.73" style="fill:none; stroke:#231f20; stroke-miterlimit:10;"/><circle cx="36.04" cy="62.85" r="10.73" style="fill:none; stroke:#231f20; stroke-miterlimit:10;"/><line x1="32.25" y1="20.36" x2="28.35" y2="26.02" style="fill:none; stroke:#231f20; stroke-miterlimit:10;"/><line x1="17.54" y1="44.55" x2="14.09" y2="52.11" style="fill:none; stroke:#231f20; stroke-miterlimit:10;"/><line x1="28.35" y1="44.34" x2="32.25" y2="52.11" style="fill:none; stroke:#231f20; stroke-miterlimit:10;"/><line x1="45.66" y1="18.62" x2="48.62" y2="25.07" style="fill:none; stroke:#231f20; stroke-miterlimit:10;"/><text transform="translate(33.5 15.14)" style="fill:#231f20; font-family:monospace; font-size:12px;"><tspan x="0" y="0">9</tspan></text><text transform="translate(48.62 38.41)" style="fill:#231f20; font-family:monospace; font-size:12px;"><tspan x="0" y="0">6</tspan></text><text transform="translate(18.49 38.57)" style="fill:#231f20; font-family:monospace; font-size:12px;"><tspan x="0" y="0">5</tspan></text><text transform="translate(32.25 66.81)" style="fill:#231f20; font-family:monospace; font-size:12px;"><tspan x="0" y="0">8</tspan></text><text transform="translate(7.31 66.98)" style="fill:#231f20; font-family:monospace; font-size:12px;"><tspan x="0" y="0">7</tspan></text><circle cx="138.73" cy="11.23" r="10.73" style="fill:none; stroke:#231f20; stroke-miterlimit:10;"/><circle cx="123.62" cy="35.18" r="10.73" style="fill:#ed1c24; stroke:#231f20; stroke-miterlimit:10;"/><circle cx="153.07" cy="35.18" r="10.73" style="fill:none; stroke:#231f20; stroke-miterlimit:10;"/><circle cx="112.08" cy="62.85" r="10.73" style="fill:#ffde17; stroke:#231f20; stroke-miterlimit:10;"/><circle cx="136.88" cy="62.85" r="10.73" style="fill:none; stroke:#231f20; stroke-miterlimit:10;"/><line x1="133.1" y1="20.36" x2="129.2" y2="26.02" style="fill:none; stroke:#231f20; stroke-miterlimit:10;"/><line x1="118.39" y1="44.55" x2="114.94" y2="52.11" style="fill:none; stroke:#231f20; stroke-miterlimit:10;"/><line x1="129.2" y1="44.34" x2="133.1" y2="52.11" style="fill:none; stroke:#231f20; stroke-miterlimit:10;"/><line x1="146.51" y1="18.62" x2="149.47" y2="25.07" style="fill:none; stroke:#231f20; stroke-miterlimit:10;"/><text transform="translate(134.35 15.14)" style="fill:#231f20; font-family:monospace; font-size:12px;"><tspan x="0" y="0">5</tspan></text><text transform="translate(149.47 38.41)" style="fill:#231f20; font-family:monospace; font-size:12px;"><tspan x="0" y="0">6</tspan></text><text transform="translate(119.33 38.57)" style="fill:#231f20; font-family:monospace; font-size:12px;"><tspan x="0" y="0">9</tspan></text><text transform="translate(133.1 66.81)" style="fill:#231f20; font-family:monospace; font-size:12px;"><tspan x="0" y="0">8</tspan></text><text transform="translate(108.16 66.98)" style="fill:#231f20; font-family:monospace; font-size:12px;"><tspan x="0" y="0">7</tspan></text><g><line x1="71.76" y1="35.18" x2="98.01" y2="35.18" style="fill:none; stroke:#231f20; stroke-miterlimit:10;"/><polygon points="96.55 40.16 105.18 35.18 96.55 30.19 96.55 40.16" style="fill:#231f20;"/></g><circle cx="235.49" cy="11.5" r="10.73" style="fill:none; stroke:#231f20; stroke-miterlimit:10;"/><circle cx="220.37" cy="35.45" r="10.73" style="fill:none; stroke:#231f20; stroke-miterlimit:10;"/><circle cx="249.83" cy="35.45" r="10.73" style="fill:none; stroke:#231f20; stroke-miterlimit:10;"/><circle cx="208.83" cy="63.12" r="10.73" style="fill:none; stroke:#231f20; stroke-miterlimit:10;"/><circle cx="233.64" cy="63.12" r="10.73" style="fill:none; stroke:#231f20; stroke-miterlimit:10;"/><line x1="229.85" y1="20.63" x2="225.95" y2="26.29" style="fill:none; stroke:#231f20; stroke-miterlimit:10;"/><line x1="215.14" y1="44.82" x2="211.69" y2="52.38" style="fill:none; stroke:#231f20; stroke-miterlimit:10;"/><line x1="225.95" y1="44.61" x2="229.85" y2="52.38" style="fill:none; stroke:#231f20; stroke-miterlimit:10;"/><line x1="243.26" y1="18.89" x2="246.22" y2="25.34" style="fill:none; stroke:#231f20; stroke-miterlimit:10;"/><text transform="translate(231.1 15.41)" style="fill:#231f20; font-family:monospace; font-size:12px;"><tspan x="0" y="0">5</tspan></text><text transform="translate(246.22 38.68)" style="fill:#231f20; font-family:monospace; font-size:12px;"><tspan x="0" y="0">6</tspan></text><text transform="translate(216.09 38.84)" style="fill:#231f20; font-family:monospace; font-size:12px;"><tspan x="0" y="0">7</tspan></text><text transform="translate(229.85 67.08)" style="fill:#231f20; font-family:monospace; font-size:12px;"><tspan x="0" y="0">8</tspan></text><text transform="translate(204.91 67.25)" style="fill:#231f20; font-family:monospace; font-size:12px;"><tspan x="0" y="0">9</tspan></text><g><line x1="170.01" y1="35.45" x2="196.25" y2="35.45" style="fill:none; stroke:#231f20; stroke-miterlimit:10;"/><polygon points="194.8 40.43 203.43 35.45 194.8 30.46 194.8 40.43" style="fill:#231f20;"/></g></svg>