<svg version="1" xmlns="http://www.w3.org/2000/svg" width="682.667" height="682.667" viewBox="0 0 512.000000 512.000000"><path d="M299.4 2C293 4.3 287 8 279.8 14.1l-5.6 4.9h-16.8l-.9-3.3-1-3.2-11.5.2c-6.3.1-13.8.8-16.6 1.5-4.8 1.3-5.2 1.3-6.3-.4-2-3.1-11.9-1.7-25.7 3.9l-6.4 2.5-3.5-2.2c-2.3-1.4-4.5-2-6.3-1.7-1.8.3-4.8-.6-9.4-2.9-8.1-4.1-17.1-6.4-25.1-6.4-5.1 0-5.9.3-6.8 2.4-.6 1.3-3 3.2-5.3 4.2-12.7 5.8-27.8 18.6-33.6 28.7-3.2 5.5-4 12.3-1.8 14.5.7.7 1.1 3.3.9 5.9-.5 10.5 5.7 26.5 14.7 38l3.8 4.8-1.3 6.5c-2.1 10.4-2.3 11-3.9 11-3.2 0-9.5 4.2-12.1 8.2-3.7 5.6-3.7 11.6.1 18l2.7 4.7-2.7 1.7c-1.5 1-3.3 3.3-4.1 5.2-1.3 3.1-1.2 3.8.5 7.3 1.7 3.3 1.7 4 .5 5.1-3.2 2.6-4.4 6.6-3.3 10.8 1.1 3.9 1.7 4.8 5.3 7.3 1.8 1.2 1.8 1.5-.4 6.1-2 4-2.1 4.8-.9 5.6 2.7 1.7 3.5 1.1 6.9-5.5 1.9-3.6 3.8-6.5 4.1-6.5.4 0 5.8 2.3 12.1 5.2l11.4 5.1 12.5.2c10.5.1 13.4.5 18 2.4 7.8 3.2 8.3 3.8 7.7 8.6l-.6 4.1 6.2 2.5c22.2 9 25.6 10.4 24.7 10.7-.6.2-2.4-.1-4-.7-1.7-.5-3-.7-3-.3 0 .7 17.5 6.7 19.4 6.7.4 0 1.9-2.7 3.2-6 4.8-11.9 13.8-20.9 23.9-24 2.8-.9 8.2-1.8 12.1-2.2l7.1-.6.6 3.4c.3 1.9.9 6.4 1.3 10.1.6 6.7.6 6.8-2.1 7.8-1.4.5-3.6 1-4.7 1-3.9 0-10.9 4.2-13.9 8.3-3.9 5.4-3.8 6.7.9 6.7 5.9 0 10.5 1.7 15.1 5.6 4.2 3.6 4.3 3.7 10.8 3 7.3-.8 8.1-.4 20.6 9.1l5.7 4.4V239.8l-2.5 1.6c-1.3.9-3.8 1.6-5.4 1.6-2.6 0-3.4-.8-7-7.4-2.3-4-4.1-8-4.1-8.9 0-.8 3.1-3.7 7-6.5 3.8-2.8 9.1-7.8 11.6-11.2l4.7-6h8.2c5.8 0 8.6.4 9.4 1.4.8 1 1.1 13.1.9 44.4l-.2 43 6.8 11.9c8.8 15.2 11.1 18.3 14 18.3 1.2 0 7.4-2.6 13.7-5.7l11.4-5.7-8.5-1.3c-4.7-.7-9.1-1.2-9.8-1.3-1 0-1.2-10.6-1-51.2l.3-51.2 6-1.3c6.9-1.5 25.5-2.1 30.3-.9 2.9.7 3.2.5 3.2-1.4 0-1.3-1.8-4.9-4-8.2-2.2-3.3-4-6.4-4-6.8 0-.4 1.4-3.4 3-6.5 2.4-4.6 3-6.9 3-12 0-7.8-.9-10.3-5.5-15.3-3.9-4.3-11.4-8.1-18.3-9.1-4.3-.6-4.5-.8-6.4-6.1-4.6-12.6-11.4-29-15.3-37l-4.3-8.5 4.4-3.8c2.4-2.1 5.1-5.1 6.1-6.7.9-1.7 2.3-3 3-3 1.9 0 6.1-9.1 7.2-15.6.8-5.3 0-15.8-1.3-17.2-.3-.2-.1-1.3.5-2.4.8-1.5.3-3.5-2.5-9.4-3.4-7.1-6.2-10.4-20.6-24-3.7-3.5-11.2-7.3-14.5-7.4-1.1 0-2.9-.7-3.9-1.5-2.4-1.8-2.8-1.8-9.2.5zm4.2 6.5l-.6 2.4 3.6-1.5c3.5-1.5 5.1-1.3 10.7.8 1.9.7 2.4 1.4 1.8 2.2-.7.8.7 2 4.7 4.1 7.1 3.7 14 10.7 18.1 18.4 3.6 6.7 3.6 7.1 1.6 7.1-1.9 0-1.9-.2.6 5.5 1.7 3.9 2.1 6.1 1.7 11.9-.6 7.6-2.3 12.6-4.4 12.6-.7 0-1.5.9-1.9 2-1.1 3.5-8.1 11.4-11.8 13.5-2 1-3.8 1.7-4 1.5-2.1-2.9-12.7-20.3-12.4-20.6.2-.2 2.1-.7 4.2-1.2l3.8-.8-6-7c-8.5-9.9-18.7-18-29.2-23.4-3.7-1.9-4.2-2.4-3-3.4 6.6-4.9 7.3-5.7 5.9-6.6-.8-.5-3.2-1.2-5.3-1.6l-3.9-.6 3.8-4c5.8-5.9 16.7-12.6 22.3-13.7.2-.1 0 1-.3 2.4zM156 13.3c3 .6 9.7 3.3 14.9 5.9 5.2 2.6 9.5 4.8 9.7 4.8.1 0 .4-.7.6-1.5.2-1.2 1-1 3.9 1.1l3.6 2.5 6.1-2.5c6.2-2.6 20.3-6.8 20.9-6.2.2.1-.3 2.2-1.1 4.4-1.7 4.9-1.1 5.1 4 1.7 2-1.4 5.3-2.9 7.3-3.5 4.3-1.2 23.1-3.3 23.8-2.6.3.2-.9 2.5-2.7 5-1.7 2.5-3 4.6-2.8 4.6.2 0 3.9-.7 8.3-1.5s10.6-1.4 13.8-1.5c6.4 0 19.7 1.9 19.7 2.9-.1.3-1.9 1.9-4 3.6-2.1 1.6-3.9 3.3-4 3.6 0 .4 1.9 1.4 4.2 2.4 7 2.8 18.3 11.3 26.9 20.3 7.3 7.5 8 8.6 6.3 9.3-1 .4-2.9.8-4.1.8-1.3.1-2.3.3-2.3.5 0 .3 2.7 4.7 6 9.8 7.2 11 15.1 26.1 21.4 41.1 5.5 12.7 17.7 48.7 17 49.8-.6 1.1-14.3 7.5-23.4 11-12.2 4.7-21.8 6.3-34.5 5.5-20.4-1.1-37.4-5.6-56.5-14.7-29.6-14.3-57.9-23.2-107-33.9-8-1.8-14.6-3.3-14.8-3.5-.4-.3 2.7-17.7 4.4-25 .7-3.3 1.4-6.9 1.4-8-.1-2-.1-2-1.5-.1s-1.5 1.9-3.4.2c-3.8-3.4-10.1-14.2-12.7-21.6-2-5.8-2.5-8.9-2.3-15.2.1-5.7-.2-8.2-1.1-8.8-2.2-1.4-.4-7.8 3.9-13.5 6.7-8.9 21.7-20.3 31.7-24.1 3.1-1.2 4.4-2.2 4.4-3.6 0-2.2 1.8-2.1 14 .5z"/><path d="M296.8 112.2c-3.8 3.1-2.6 14.3 1.9 17.8 2.8 2.2 8.3 2.6 11.5.9 1.7-.9 1.9-1.7 1.3-4.7-1.9-10.4-9.8-17.9-14.7-14zM271.7 115c-2.4 1.9-4.7 8.8-4.7 14 0 5.8 9.2 8.1 12.9 3.4 3.8-4.8 2.2-17-2.4-18.8-2.5-.9-3-.8-5.8 1.4zM307.5 139.5c-3 3-3.2 6.4-.4 9.9 4.1 5.2 12.9 2 12.9-4.8 0-3.4-4.1-7.6-7.5-7.6-1.4 0-3.7 1.1-5 2.5zM73.8 206.5c-17.2 4.7-26 21.3-26 49 0 18 3.3 31 10.5 40.6 4.9 6.7 16.2 11.9 25.8 11.9 5.5 0 16.4-3.2 19.7-5.8l2.3-1.8-2.2-6c-1.2-3.2-2.3-6-2.4-6.2-.1-.1-2.4.9-5 2.3-6 3.1-15.2 3.5-20.5.7-7.5-4-11-15.5-11-36.3 0-20 3.1-29.8 10.6-33.4 4.9-2.3 14.8-1.6 20 1.4 2 1.2 3.9 1.9 4.2 1.6.4-.3 1.6-3.3 2.8-6.6l2.1-5.9-3.1-2c-4.1-2.5-13.9-5-19.1-4.9-2.2 0-6.1.7-8.7 1.4zM136.3 206.9c-13.8 4.7-21.1 17.6-17.9 31.5 2.2 9.4 5.9 13.7 21.5 25.3 3.6 2.7 7.3 6 8.4 7.4 4.2 5.7 3 17.3-2 20.6-3.9 2.6-14.6 2.3-20-.5-2.3-1.2-4.6-2.2-5-2.2-.7 0-5.3 10.6-5.3 12.2 0 .3 2.8 1.8 6.3 3.4 5.4 2.5 7.4 2.9 15.2 2.9 7.2 0 10-.5 14.1-2.3 16.6-7.5 21.3-29 9.6-43.9-2.1-2.6-7.7-7.4-12.5-10.6-4.7-3.1-9.7-7.1-11.1-8.7-4.7-5.7-4.8-15.7-.1-19.8 3.5-3 13.8-3.1 19.4-.2 2.9 1.4 4 1.6 4.4.7.3-.7 1.4-3.6 2.6-6.4l2.1-5.3-3.3-1.6c-8.5-4.5-18.2-5.4-26.4-2.5zM356.5 207c-3.3.5-7 1.2-8.2 1.5l-2.3.5v47.5c0 44.2.1 47.4 1.8 47.9 5.2 1.6 21.3 2.5 27.7 1.5 9.1-1.2 10-1.6 16.1-5.5 4.2-2.6 5.8-4.5 8.4-9.8 2.9-5.9 3.2-7.2 2.8-13.8-.4-8.2-2.2-12.5-7.3-18.1-1.9-2.1-3.5-4.4-3.5-5.2 0-.8 1.4-3.4 3-5.7 4.2-5.9 5.7-13.9 4.1-21.1-1.9-8.6-7.9-14.9-17.1-18.2-5.2-1.8-18.2-2.6-25.5-1.5zm20.9 15.4c3.7 1.5 5.6 5.5 5.6 11.6 0 9.6-3.8 13-14.5 13H362v-26h6c3.3 0 7.6.6 9.4 1.4zm2.5 41.1c4.4 2.2 6.1 6.2 6.1 14.4 0 6.4-.3 7.4-2.9 10.3-2.8 3.2-3.2 3.3-12 3.6l-9.1.4v-14.9c0-8.2.3-15.3.8-15.7 1.1-1.3 13.7.1 17.1 1.9z"/><path d="M366 276.4c0 10.5.2 11.4 2 11.9 3.4.9 9.4-1.1 11.8-3.8 2.8-3.3 2.8-7.2 0-13-2.2-4.6-5.6-6.5-11.5-6.5-2.3 0-2.3.2-2.3 11.4zM245.7 208.1c-13 3.1-22.8 13.5-28.4 30.3-2.5 7.6-2.7 9.3-2.8 26.1 0 16 .3 18.8 2.3 25.2 4.6 14.8 15.2 21.1 28.6 17.1 9.9-3 16-14.8 16-31.3.1-20.1-8.7-31.5-24.2-31.5-7.4 0-7.6-.5-3.3-9.6 3.6-7.7 7.9-11.1 16.2-12.8l6.4-1.3-.3-4.4c-.4-7.7-.9-8.9-4-8.8-1.5.1-4.4.5-6.5 1zm-3.4 51.7c3.9 4.3 4.5 22.8 1.2 30.9-1.2 2.8-1.9 3.3-4.8 3.3-6.5 0-8.7-5.7-8.7-23.1 0-6.4.3-11.9.7-12.2.3-.4 2.7-.7 5.3-.7 3.3 0 5.2.6 6.3 1.8z"/><path d="M233 263.3c0 .4.9 2.5 2 4.6 2.3 4.6 4.1 15 3.4 19.4-.5 2.8-.4 3 .7 1.3 1.6-2.5.5-11.9-2.1-18.7-2-5-4-8.3-4-6.6zM296 212.7c-2.5 3.2-7.3 7.9-10.7 10.4l-6.1 4.6 3 5.6 3 5.6 3.9-2.5c2.1-1.3 4.8-2.4 6-2.4h2.1l-.7 36-.7 36H312l-.2-49.3-.3-49.2-5.5-.3-5.5-.2-4.5 5.7zM422.7 207.7c-.4.3-.7 22.6-.7 49.5V306h47.1l-.3-7.3-.3-7.2-14.7-.3-14.8-.3V207h-7.8c-4.3 0-8.2.3-8.5.7zM399.7 216.1c1 1.7 2.6 3.7 3.6 4.3.9.6 1.7 1.9 1.7 2.8 0 1 3.2 4.9 7 8.7l7 6.8v-4.3c0-3.7-.5-4.7-3.8-7.6-2.2-1.8-4.2-4.5-4.6-6-.4-2-2-3.5-5.6-5.3-6.5-3.3-7.5-3.2-5.3.6zM85.6 224.8c-1.7 2.8-5.7 21.5-5.6 26.2.1 4.1-.8 8.4-3.9 16.9-3.8 10.7-3.9 11.6-2.5 14.2.8 1.6 1.8 2.9 2.3 2.9.4 0 1.4-2.6 2.1-5.8 1.4-6.6 6-19.3 9-25.2l2-4h-2c-1.8 0-2-.4-1.4-4.3.4-2.3 1.7-7.8 3-12.2 1.3-4.4 2.2-8 2.1-8.1-1.1-.9-4.7-1.3-5.1-.6z"/><path d="M416.8 299.9c-2.7 3.8-11.3 9.8-17.8 12.3-3.3 1.2-6 2.8-6 3.5 0 .6 1.1 5.8 2.5 11.6s2.9 13.1 3.3 16.3c.7 5.7.8 5.9 4.8 7.4 2.2.8 7.1 3.5 10.8 5.9 5.9 3.9 6.5 4.6 5.2 5.9-1.3 1.3-.5 1.9 6.3 5.2 7.8 3.8 15.9 10.7 18.6 16.1 5.2 9.9.6 38.2-8.3 51.1-4.8 7-11.6 13-21 18.4-4.9 2.8-8.8 5.8-9 6.8-.3 1.4.1 1.7 1.7 1.1 4.6-1.4 1.7 1.2-4.2 3.7-25.5 11.3-51.5 14.8-84.7 11.5-11.7-1.2-16.3-1.2-23.6-.3l-9.2 1.2 2.3-3.6c1.3-1.9 2.8-5.4 3.4-7.6.6-2.3 1.7-4.4 2.5-4.7 1.2-.5 1.2-1.6 0-7.7-1.7-9.2-5.7-18-11.7-25.8l-4.8-6.2 2.5-1.1c2.9-1.4 2.6-3.1-1.8-7.7-5.9-6.4-26.1-18.2-36.3-21.2-4.8-1.5-4.9-1.6-2.7-4.2 1.6-1.7 1.4-1.9-3.2-4-5.5-2.4-19.4-3.2-21.4-1.2-.8.8.3.9 4 .3 5.6-.9 13.4.2 17.6 2.4 2.3 1.2 2.4 1.5 1 2.6-2.4 2-2 2.8 2.2 4.2 12.8 4.2 35.1 17.2 39.2 22.8 2.6 3.8 2.5 4.9-.5 5.7-1.4.3-2.5.8-2.5 1.1 0 .3 2 2.8 4.5 5.6 5.2 5.9 9.9 14.8 12 22.7 1.6 6.1 1.9 11 .7 11-.5 0-1.6 2.5-2.6 5.5-1.3 4.4-3.5 7.5-9.7 14.3-4.4 4.8-8.3 10-8.7 11.7-.7 2.7-1.7 3.3-9.8 6.2-20.2 7.1-29.8 8.3-58.5 7.2-33-1.3-49-4.2-68.9-12.9-19.6-8.4-30.4-17-43.4-34.3-5.8-7.8-20.1-29.6-20.9-32-.3-.9-.7-.9-1.9.1-1.3 1-1.6.8-2.2-2-1.5-7.3-1.8-31.8-.7-44.8 1.2-13.1 7.2-54.4 9.1-62.5.5-2.2 1-4.5 1-5.1 0-1.7-4.8-2.4-5.4-.8-.6 1.6-7.1 40.9-8.5 51.9-1.9 14.4-2.8 35.8-2 48.5 1.4 21.3 1.6 22.1 6.9 22.4 1.3.1 4.6 4.3 10 12.4 18.5 28.3 29.5 39 50.5 48.8 23.7 11.1 43.5 14.9 82 16.1 24.2.7 31-.2 51-6.7 13.7-4.5 16-5.8 16.8-9.7.3-1.5 2.5-5 4.9-7.6l4.3-4.8 9.3-1.1c7.6-.9 12.5-.8 27.8.7 31.5 3 55.6-.6 81.9-12.2 11-4.9 13.5-6.8 13.5-10.2 0-2.3.7-3.1 3.2-4.2 1.8-.7 6.5-4.5 10.4-8.4 5.4-5.3 8.1-9 11.2-15.5 6-12.3 7.6-19.2 7.6-34 .1-11.8-.1-12.8-2.6-17-3.4-5.9-11.4-13.4-17.3-16.2-2.9-1.4-4.8-3.1-5.1-4.5-.6-2.2-7.4-7.3-16.8-12.4l-4.9-2.7-2.3-10.9c-1.2-5.9-2.5-12-2.8-13.4-.7-2.3-.2-2.8 5.6-5.7 3.5-1.8 8-4.7 10.1-6.5 3.5-2.9 3.8-3.6 3.5-7.2l-.3-4-1.7 2.4z"/><path d="M225.4 315.8c-2.3 2.6-6.7 6.2-9.7 8-5.5 3.3-5.6 3.3-8.5 1.7-2.7-1.6-3-1.6-7.1.5-6.3 3.2-18.5 6-26.1 6-12.5 0-25.3-4.5-35.3-12.3-2.1-1.6-3.9-2.8-4.1-2.6-1.3 1.5-3.5 6.9-2.7 6.9.5 0 1.4-1.3 2.1-3l1.2-3 4.1 3.6c14.9 12.7 39.6 15.1 60.4 5.8l5.6-2.4 2.2 2 2.2 2 6-3.9c5.6-3.6 11.7-9.3 13.6-12.7 1.4-2.5.3-1.5-3.9 3.4z"/></svg>