<svg id="Layer_1" data-name="Layer 1" xmlns="http://www.w3.org/2000/svg" viewBox="0 0 189.5 123.2"><rect x="99.02" y="91.84" width="43.33" height="30.86" style="fill:#fff;stroke:#231f20;stroke-miterlimit:10"/><rect x="28.09" y="46.17" width="43.33" height="30.86" style="fill:#fff;stroke:#231f20;stroke-miterlimit:10"/><rect x="0.5" y="91.84" width="43.33" height="30.86" style="fill:#fff;stroke:#231f20;stroke-miterlimit:10"/><text transform="translate(18.87 111.34)" style="font-size:12px;fill:#231f20;font-family:monospace">1</text><line x1="40.64" y1="77.03" x2="22.17" y2="91.84" style="fill:#231f20;stroke:#231f20;stroke-miterlimit:10"/><line x1="56.64" y1="77.03" x2="71.43" y2="91.84" style="fill:#231f20;stroke:#231f20;stroke-miterlimit:10"/><rect x="49.76" y="91.84" width="43.33" height="30.86" style="fill:#fff;stroke:#231f20;stroke-miterlimit:10"/><text transform="translate(68.13 112.43)" style="font-size:12px;fill:#231f20;font-family:monospace">4</text><text transform="translate(117.38 111.66)" style="font-size:12px;fill:#231f20;font-family:monospace">7</text><line x1="133.98" y1="75.6" x2="120.68" y2="91.84" style="fill:#231f20;stroke:#231f20;stroke-miterlimit:10"/><rect x="145.66" y="91.84" width="43.33" height="30.86" style="fill:#fff;stroke:#231f20;stroke-miterlimit:10"/><text transform="translate(164.03 111.66)" style="font-size:12px;fill:#231f20;font-family:monospace">9</text><line x1="153.67" y1="75.6" x2="168" y2="91.84" style="fill:#231f20;stroke:#231f20;stroke-miterlimit:10"/><rect x="121.29" y="46.17" width="43.33" height="30.86" style="fill:#fff;stroke:#231f20;stroke-miterlimit:10"/><rect x="74.41" y="0.5" width="43.33" height="30.86" style="fill:#fff;stroke:#231f20;stroke-miterlimit:10"/><line x1="106.9" y1="31.36" x2="142.95" y2="46.17" style="fill:#231f20;stroke:#231f20;stroke-miterlimit:10"/><line x1="85.81" y1="31.36" x2="49.76" y2="46.17" style="fill:#231f20;stroke:#231f20;stroke-miterlimit:10"/><text transform="translate(139.74 65.08)" style="font-size:12px;fill:#231f20;font-family:monospace">8</text><text transform="translate(45.3 65.19)" style="font-size:12px;fill:#231f20;font-family:monospace">3</text><text transform="translate(93.71 17.82)" style="font-size:12px;fill:#231f20;font-family:monospace">5</text></svg>