<?xml version="1.0" encoding="UTF-8"?><svg id="Layer_1" xmlns="http://www.w3.org/2000/svg" viewBox="0 0 293.05 146.55"><path d="M170.2,64.21c9.81-9.11,14.72-13.67,20.07-14,8.24-.51,14.49,7.54,15.19,8.47,8.33,11.03,4.93,26.91,3.98,31.33-1.01,4.7-5.67,26.47-21.64,29.6-11.18,2.19-23.57-5.6-27.86-19.13-3.94-12.43,.43-25.06,5.66-31.73,.77-.98,2.04-2.16,4.6-4.53Z" style="fill:#1e88e5; stroke:#231f20; stroke-dasharray:0 3; stroke-miterlimit:10;"/><path d="M199.29,35.58c1.48-12.43,9.84-20.59,12.31-22.93,2.56-2.43,13.89-13.18,29.54-12.07,3.52,.25,13.14,.93,18.15,8.15,3.49,5.03,2.97,10.67,2.77,12.82-1.04,11.22-9.94,18.44-15.85,23.23-6.03,4.89-14.88,12.07-27.08,11.62-2.74-.1-13.25-.49-18-7.85-2.86-4.43-2.29-9.28-1.85-12.97Z" style="fill:#fec010; stroke:#231f20; stroke-dasharray:0 3; stroke-miterlimit:10;"/><path d="M275.58,24.17c-9.32,2.14-14.11,14.89-19.27,28.62-3.65,9.73-3.88,14.21-3.83,16.92,.06,2.91,.24,12.14,5.43,16.77,5.92,5.28,14.27,.94,16.67-.31,9.82-5.1,16.05-17.54,17.54-29.54,1.19-9.66,.19-26.08-8.03-31.23-3.64-2.29-7.34-1.5-8.52-1.23Z" style="fill:#014e41; stroke:#231f20; stroke-dasharray:0 3; stroke-miterlimit:10;"/><ellipse cx="235.98" cy="72.35" rx="16.33" ry="17.36" style="fill:#d81b60; stroke:#231f20; stroke-dasharray:0 3; stroke-miterlimit:10;"/><line x1="196.83" y1="63.76" x2="209.91" y2="44.89" style="fill:#231f20; stroke:#231f20; stroke-miterlimit:10;"/><line x1="232.94" y1="61.93" x2="221.2" y2="42.7" style="fill:#231f20; stroke:#231f20; stroke-miterlimit:10;"/><line x1="267.76" y1="61.06" x2="276.8" y2="42.6" style="fill:#231f20; stroke:#231f20; stroke-miterlimit:10;"/><rect x="92" y="76.28" width="34.82" height="30.86" style="fill:#014e41; stroke:#231f20; stroke-miterlimit:10;"/><rect x="45.6" y="30.61" width="34.82" height="30.86" style="fill:#fec010; stroke:#231f20; stroke-miterlimit:10;"/><text transform="translate(53.12 50.22)" style="fill:#231f20; font-family:monospace, monospace; font-size:12px;"><tspan x="0" y="0">3 5</tspan></text><rect x=".5" y="76.28" width="34.82" height="30.86" style="fill:#1e88e5; stroke:#231f20; stroke-miterlimit:10;"/><text transform="translate(8.01 95.78)" style="fill:#fff; font-family:monospace, monospace; font-size:12px;"><tspan x="0" y="0">1 2</tspan></text><line x1="53.38" y1="61.48" x2="17.91" y2="76.28" style="fill:#231f20; stroke:#231f20; stroke-miterlimit:10;"/><line x1="63.02" y1="61.48" x2="63.02" y2="76.28" style="fill:#231f20; stroke:#231f20; stroke-miterlimit:10;"/><rect x="45.6" y="76.28" width="34.82" height="30.86" style="fill:#d81b60; stroke:#231f20; stroke-miterlimit:10;"/><text transform="translate(59.72 95.88)" style="fill:#fff; font-family:monospace, monospace; font-size:12px;"><tspan x="0" y="0">4</tspan></text><text transform="translate(99.52 95.88)" style="fill:#fff; font-family:monospace, monospace; font-size:12px;"><tspan x="0" y="0">6 7</tspan></text><line x1="73.95" y1="61.48" x2="109.41" y2="76.28" style="fill:#231f20; stroke:#231f20; stroke-miterlimit:10;"/><circle cx="244.63" cy="14.91" r="11.4" style="fill:#231f20; stroke:#231f20; stroke-miterlimit:10;"/><text transform="translate(212.63 48.67)" style="fill:#fff; font-family:monospace, monospace; font-size:12px;"><tspan x="0" y="0">a</tspan></text><line x1="222.84" y1="29.55" x2="235.99" y2="22.52" style="fill:#231f20; stroke:#231f20; stroke-miterlimit:10;"/><circle cx="216.07" cy="38.09" r="11.4" style="fill:#ed1c24; stroke:#231f20; stroke-miterlimit:10;"/><text transform="translate(212.52 41.35)" style="fill:#fff; font-family:monospace, monospace; font-size:12px;"><tspan x="0" y="0">3</tspan></text><text transform="translate(241.33 19.22)" style="fill:#fff; font-family:monospace, monospace; font-size:12px;"><tspan x="0" y="0">5</tspan></text><line x1="270.71" y1="32.55" x2="254.36" y2="20.82" style="fill:#231f20; stroke:#231f20; stroke-miterlimit:10;"/><circle cx="278.71" cy="40.66" r="11.4" style="fill:#231f20; stroke:#231f20; stroke-miterlimit:10;"/><text transform="translate(275.15 44.89)" style="fill:#fff; font-family:monospace, monospace; font-size:12px;"><tspan x="0" y="0">7</tspan></text><circle cx="264.89" cy="70.62" r="11.4" style="fill:#ed1c24; stroke:#231f20; stroke-miterlimit:10;"/><text transform="translate(261.33 74.85)" style="fill:#fff; font-family:monospace, monospace; font-size:12px;"><tspan x="0" y="0">6</tspan></text><path d="M235.99,60.95c6.29,0,11.4,5.1,11.4,11.4s-5.1,11.4-11.4,11.4-11.4-5.1-11.4-11.4,5.1-11.4,11.4-11.4" style="fill:#231f20; stroke:#231f20; stroke-miterlimit:10;"/><text transform="translate(232.69 76.28)" style="fill:#fff; font-family:monospace, monospace; font-size:12px;"><tspan x="0" y="0">4</tspan></text><path d="M176.34,90.45c6.29,0,11.4,5.1,11.4,11.4s-5.1,11.4-11.4,11.4-11.4-5.1-11.4-11.4,5.1-11.4,11.4-11.4" style="fill:#ed1c24; stroke:#231f20; stroke-miterlimit:10;"/><text transform="translate(173.04 105.68)" style="fill:#fff; font-family:monospace, monospace; font-size:12px;"><tspan x="0" y="0">1</tspan></text><circle cx="195.23" cy="70.44" r="11.4" style="fill:#231f20; stroke:#231f20; stroke-miterlimit:10;"/><line x1="178.72" y1="90.22" x2="189.49" y2="77.11" style="fill:#231f20; stroke:#231f20; stroke-miterlimit:10;"/><text transform="translate(191.93 74.72)" style="fill:#fff; font-family:monospace, monospace; font-size:12px;"><tspan x="0" y="0">2</tspan></text><g><path d="M130.36,47.48h26.49" style="fill:none; stroke:#231f20; stroke-miterlimit:10;"/><polygon points="131.82 52.47 123.18 47.48 131.82 42.5 131.82 52.47" style="fill:#231f20;"/><polygon points="155.39 52.47 164.02 47.48 155.39 42.5 155.39 52.47" style="fill:#231f20;"/></g></svg>