<svg id="Layer_1" data-name="Layer 1" xmlns="http://www.w3.org/2000/svg" viewBox="0 0 191.06 71.81"><rect x="0.5" y="26.44" width="43.33" height="30.86" style="fill:#fff;stroke:#231f20;stroke-miterlimit:10"/><text transform="translate(5.67 45.95)" style="font-size:12px;fill:#231f20;font-family:monospace">a b x</text><circle cx="158.53" cy="26.86" r="11.4" style="fill:#231f20;stroke:#231f20;stroke-miterlimit:10"/><circle cx="130.09" cy="59.92" r="11.4" style="fill:#ed1c24;stroke:#231f20;stroke-miterlimit:10"/><text transform="translate(126.54 64.15)" style="font-size:12px;fill:#fff;font-family:monospace">a</text><text transform="translate(155.23 31.06)" style="font-size:12px;fill:#fff;font-family:monospace">b</text><line x1="135.43" y1="49.92" x2="149.89" y2="34.46" style="fill:#231f20;stroke:#231f20;stroke-miterlimit:10"/><rect x="0.5" y="26.44" width="43.33" height="30.86" style="fill:#fff;stroke:#231f20;stroke-miterlimit:10"/><text transform="translate(5.67 45.95)" style="font-size:12px;fill:#231f20;font-family:monospace">a b x</text><circle cx="158.53" cy="26.86" r="11.4" style="fill:#231f20;stroke:#231f20;stroke-miterlimit:10"/><circle cx="130.09" cy="59.92" r="11.4" style="fill:#ed1c24;stroke:#231f20;stroke-miterlimit:10"/><text transform="translate(126.54 64.15)" style="font-size:12px;fill:#fff;font-family:monospace">a</text><text transform="translate(155.23 31.06)" style="font-size:12px;fill:#fff;font-family:monospace">b</text><line x1="135.43" y1="49.92" x2="149.89" y2="34.46" style="fill:#231f20;stroke:#231f20;stroke-miterlimit:10"/><line x1="177.16" y1="49.6" x2="162.7" y2="34.14" style="fill:#231f20;stroke:#231f20;stroke-miterlimit:10"/><circle cx="179.16" cy="59.92" r="11.4" style="fill:#ed1c24;stroke:#231f20;stroke-miterlimit:10"/><text transform="translate(175.61 64.15)" style="font-size:12px;fill:#fff;font-family:monospace">x</text><path d="M55.35,40.07H102.1" style="fill:none;stroke:#231f20;stroke-miterlimit:10"/><polygon points="100.64 45.05 109.28 40.07 100.64 35.08 100.64 45.05" style="fill:#231f20"/><line x1="22.17" y1="26.44" x2="22.17" y2="10.98" style="fill:#231f20;stroke:#231f20;stroke-miterlimit:10"/><line x1="158.53" y1="15.46" x2="158.53" style="fill:#231f20;stroke:#231f20;stroke-miterlimit:10"/><path d="M55.35,40.07H102.1" style="fill:none;stroke:#231f20;stroke-miterlimit:10"/><polygon points="100.64 45.05 109.28 40.07 100.64 35.08 100.64 45.05" style="fill:#231f20"/><line x1="22.17" y1="26.44" x2="22.17" y2="10.98" style="fill:#231f20;stroke:#231f20;stroke-miterlimit:10"/><line x1="158.53" y1="15.46" x2="158.53" style="fill:#231f20;stroke:#231f20;stroke-miterlimit:10"/></svg>