<svg id="Layer_1" data-name="Layer 1" xmlns="http://www.w3.org/2000/svg" viewBox="0 0 101.75 104.6"><line x1="87.85" y1="82.39" x2="73.39" y2="66.93" style="fill:#231f20;stroke:#231f20;stroke-miterlimit:10"/><circle cx="69.22" cy="59.65" r="11.4" style="fill:#231f20;stroke:#231f20;stroke-miterlimit:10"/><circle cx="40.78" cy="92.71" r="11.4" style="fill:#ed1c24;stroke:#231f20;stroke-miterlimit:10"/><text transform="translate(37.23 96.93)" style="font-size:12px;fill:#fff;font-family:monospace">a</text><text transform="translate(65.92 63.85)" style="font-size:12px;fill:#fff;font-family:monospace">b</text><line x1="46.12" y1="82.71" x2="60.59" y2="67.25" style="fill:#231f20;stroke:#231f20;stroke-miterlimit:10"/><circle cx="69.22" cy="59.65" r="11.4" style="fill:#ed1c24;stroke:#231f20;stroke-miterlimit:10"/><circle cx="40.78" cy="92.71" r="11.4" style="fill:#231f20;stroke:#231f20;stroke-miterlimit:10"/><line x1="46.12" y1="82.71" x2="60.59" y2="67.25" style="fill:#231f20;stroke:#231f20;stroke-miterlimit:10"/><circle cx="89.85" cy="92.71" r="11.4" style="fill:#231f20;stroke:#231f20;stroke-miterlimit:10"/><line x1="69.22" y1="48.25" x2="48.07" y2="21.99" style="fill:#231f20;stroke:#231f20;stroke-miterlimit:10"/><circle cx="42.78" cy="11.9" r="11.4" style="fill:#231f20;stroke:#231f20;stroke-miterlimit:10"/><line x1="15.96" y1="44.67" x2="37.11" y2="18.41" style="fill:#231f20;stroke:#231f20;stroke-miterlimit:10"/><circle cx="11.9" cy="55.57" r="11.4" transform="translate(-44.92 56.74) rotate(-79.1)" style="fill:#ed1c24;stroke:#231f20;stroke-miterlimit:10"/><path d="M20.06,100.32C20.22,91.75,21.8,74,33.54,56.66,56.07,23.43,96.16,21.17,101.11,21" style="fill:none;stroke:#231f20;stroke-miterlimit:10;stroke-dasharray:2"/></svg>