<svg id="Layer_1" data-name="Layer 1" xmlns="http://www.w3.org/2000/svg" viewBox="0 0 185.32 105.81"><circle cx="40.34" cy="24.25" r="11.4" style="fill:#231f20;stroke:#231f20;stroke-miterlimit:10"/><circle cx="11.9" cy="57.31" r="11.4" style="fill:#ed1c24;stroke:#231f20;stroke-miterlimit:10"/><text transform="translate(8.34 61.54)" style="font-size:12px;fill:#fff;font-family:monospace">a</text><text transform="translate(37.04 28.45)" style="font-size:12px;fill:#fff;font-family:monospace">b</text><line x1="17.24" y1="47.32" x2="31.7" y2="31.86" style="fill:#231f20;stroke:#231f20;stroke-miterlimit:10"/><circle cx="40.34" cy="24.25" r="11.4" style="fill:#231f20;stroke:#231f20;stroke-miterlimit:10"/><circle cx="11.9" cy="57.31" r="11.4" style="fill:#ed1c24;stroke:#231f20;stroke-miterlimit:10"/><text transform="translate(8.34 61.54)" style="font-size:12px;fill:#fff;font-family:monospace">a</text><text transform="translate(37.04 28.45)" style="font-size:12px;fill:#fff;font-family:monospace">b</text><line x1="17.24" y1="47.32" x2="31.7" y2="31.86" style="fill:#231f20;stroke:#231f20;stroke-miterlimit:10"/><line x1="31.7" y1="83.02" x2="17.24" y2="67.56" style="fill:#231f20;stroke:#231f20;stroke-miterlimit:10"/><circle cx="35.8" cy="93.91" r="11.4" style="fill:#ed1c24;stroke:#231f20;stroke-miterlimit:10"/><text transform="translate(32.25 98.14)" style="font-size:12px;fill:#fff;font-family:monospace">x</text><line x1="40.34" y1="12.85" x2="40.34" style="fill:#231f20;stroke:#231f20;stroke-miterlimit:10"/><path d="M59.38,57.1h46.75" style="fill:none;stroke:#231f20;stroke-miterlimit:10"/><polygon points="104.67 62.09 113.31 57.1 104.67 52.11 104.67 62.09" style="fill:#231f20"/><text transform="translate(56.84 48.54)" style="font-size:8.2618989944458px;fill:#231f20;font-family:monospace">rotateLeft(a)</text><circle cx="173.43" cy="24.25" r="11.4" style="fill:#231f20;stroke:#231f20;stroke-miterlimit:10"/><circle cx="144.98" cy="57.31" r="11.4" style="fill:#ed1c24;stroke:#231f20;stroke-miterlimit:10"/><text transform="translate(141.43 61.54)" style="font-size:12px;fill:#fff;font-family:monospace">a</text><text transform="translate(170.13 28.45)" style="font-size:12px;fill:#fff;font-family:monospace">b</text><line x1="150.33" y1="47.32" x2="164.79" y2="31.86" style="fill:#231f20;stroke:#231f20;stroke-miterlimit:10"/><circle cx="173.43" cy="24.25" r="11.4" style="fill:#231f20;stroke:#231f20;stroke-miterlimit:10"/><circle cx="144.98" cy="57.31" r="11.4" style="fill:#ed1c24;stroke:#231f20;stroke-miterlimit:10"/><text transform="translate(141.43 61.54)" style="font-size:12px;fill:#fff;font-family:monospace">x</text><text transform="translate(170.13 28.45)" style="font-size:12px;fill:#fff;font-family:monospace">b</text><line x1="150.33" y1="47.32" x2="164.79" y2="31.86" style="fill:#231f20;stroke:#231f20;stroke-miterlimit:10"/><line x1="124.88" y1="82.29" x2="139.34" y2="66.83" style="fill:#231f20;stroke:#231f20;stroke-miterlimit:10"/><circle cx="120.71" cy="93.68" r="11.4" style="fill:#ed1c24;stroke:#231f20;stroke-miterlimit:10"/><text transform="translate(117.16 97.91)" style="font-size:12px;fill:#fff;font-family:monospace">a</text></svg>