<svg id="Layer_1" data-name="Layer 1" xmlns="http://www.w3.org/2000/svg" viewBox="0 0 259.15 117.85"><circle cx="214.93" cy="29.88" r="11.4" style="fill:#fff;stroke:#231f20;stroke-miterlimit:10"/><circle cx="186.49" cy="62.94" r="11.4" style="fill:#ed1c24;stroke:#231f20;stroke-miterlimit:10"/><text transform="translate(182.94 67.17)" style="font-size:12px;fill:#fff;font-family:monospace">a</text><text transform="translate(211.63 34.09)" style="font-size:12px;fill:#231f20;font-family:monospace">b</text><line x1="166.53" y1="88.32" x2="180.99" y2="72.87" style="fill:#231f20;stroke:#231f20;stroke-miterlimit:10"/><line x1="203.53" y1="90.6" x2="191.83" y2="72.87" style="fill:#231f20;stroke:#231f20;stroke-miterlimit:10"/><line x1="232.95" y1="55.19" x2="222.8" y2="37.58" style="fill:#231f20;stroke:#231f20;stroke-miterlimit:10"/><ellipse cx="159.06" cy="101.82" rx="17.05" ry="14.58" style="fill:#fff;stroke:#231f20;stroke-miterlimit:10"/><text transform="translate(143.79 104.3)" style="font-size:7px;fill:#231f20;font-family:monospace">(..., a)</text><ellipse cx="203.53" cy="102.77" rx="17.05" ry="14.58" style="fill:#fff;stroke:#231f20;stroke-miterlimit:10"/><text transform="translate(191.83 105.09)" style="font-size:7px;fill:#231f20;font-family:monospace">(a, b)</text><ellipse cx="241.61" cy="67.76" rx="17.05" ry="14.58" style="fill:#fff;stroke:#231f20;stroke-miterlimit:10"/><text transform="translate(226.33 70.23)" style="font-size:7px;fill:#231f20;font-family:monospace">(b, ...)</text><line x1="191.83" y1="52.95" x2="206.29" y2="37.49" style="fill:#231f20;stroke:#231f20;stroke-miterlimit:10"/><line x1="214.93" y1="17.88" x2="214.93" y2="2.42" style="fill:#231f20;stroke:#231f20;stroke-miterlimit:10"/><circle cx="40.21" cy="27.46" r="11.4" style="fill:#fff;stroke:#231f20;stroke-miterlimit:10"/><circle cx="67.61" cy="60.52" r="11.4" style="fill:#ed1c24;stroke:#231f20;stroke-miterlimit:10"/><text transform="translate(36.91 29.96)" style="font-size:12px;fill:#231f20;font-family:monospace">a</text><text transform="translate(64.32 64)" style="font-size:12px;fill:#fff;font-family:monospace">b</text><line x1="88.62" y1="85.9" x2="74.16" y2="70.44" style="fill:#231f20;stroke:#231f20;stroke-miterlimit:10"/><line x1="51.61" y1="88.18" x2="63.31" y2="70.44" style="fill:#231f20;stroke:#231f20;stroke-miterlimit:10"/><line x1="22.19" y1="52.77" x2="32.34" y2="35.16" style="fill:#231f20;stroke:#231f20;stroke-miterlimit:10"/><ellipse cx="17.55" cy="67.28" rx="17.05" ry="14.58" style="fill:#fff;stroke:#231f20;stroke-miterlimit:10"/><text transform="translate(2.27 69.75)" style="font-size:7px;fill:#231f20;font-family:monospace">(..., a)</text><ellipse cx="45.54" cy="100.48" rx="17.05" ry="14.58" style="fill:#fff;stroke:#231f20;stroke-miterlimit:10"/><text transform="translate(33.84 102.81)" style="font-size:7px;fill:#231f20;font-family:monospace">(a, b)</text><ellipse cx="92.96" cy="100.48" rx="17.05" ry="14.58" style="fill:#fff;stroke:#231f20;stroke-miterlimit:10"/><text transform="translate(77.68 102.96)" style="font-size:7px;fill:#231f20;font-family:monospace">(b, ...)</text><line x1="63.31" y1="50.53" x2="48.85" y2="35.07" style="fill:#231f20;stroke:#231f20;stroke-miterlimit:10"/><line x1="40.21" y1="15.46" x2="40.21" style="fill:#231f20;stroke:#231f20;stroke-miterlimit:10"/><path d="M102.7,42.8h46.74" style="fill:none;stroke:#231f20;stroke-miterlimit:10"/><polygon points="147.98 47.78 156.62 42.8 147.98 37.81 147.98 47.78" style="fill:#231f20"/><text transform="translate(86.56 32.52)" style="font-size:12px;fill:#231f20;font-family:monospace">rotateLeft(a)</text></svg>