<svg id="Layer_1" data-name="Layer 1" xmlns="http://www.w3.org/2000/svg" viewBox="0 0 179.05 105.58"><rect x="0.5" y="40.78" width="43.33" height="30.86" style="fill:#fff;stroke:#231f20;stroke-miterlimit:10"/><text transform="translate(5.67 60.28)" style="font-size:12px;fill:#231f20;font-family:monospace">a b x</text><circle cx="167.16" cy="24.25" r="11.4" style="fill:#231f20;stroke:#231f20;stroke-miterlimit:10"/><circle cx="138.71" cy="57.31" r="11.4" style="fill:#ed1c24;stroke:#231f20;stroke-miterlimit:10"/><text transform="translate(135.16 61.54)" style="font-size:12px;fill:#fff;font-family:monospace">a</text><text transform="translate(163.86 28.45)" style="font-size:12px;fill:#fff;font-family:monospace">b</text><line x1="144.06" y1="47.32" x2="158.52" y2="31.86" style="fill:#231f20;stroke:#231f20;stroke-miterlimit:10"/><rect x="0.5" y="40.78" width="43.33" height="30.86" style="fill:#fff;stroke:#231f20;stroke-miterlimit:10"/><text transform="translate(5.67 60.28)" style="font-size:12px;fill:#231f20;font-family:monospace">x a b</text><circle cx="167.16" cy="24.25" r="11.4" style="fill:#231f20;stroke:#231f20;stroke-miterlimit:10"/><circle cx="138.71" cy="57.31" r="11.4" style="fill:#ed1c24;stroke:#231f20;stroke-miterlimit:10"/><text transform="translate(135.16 61.54)" style="font-size:12px;fill:#fff;font-family:monospace">a</text><text transform="translate(163.86 28.45)" style="font-size:12px;fill:#fff;font-family:monospace">b</text><line x1="144.06" y1="47.32" x2="158.52" y2="31.86" style="fill:#231f20;stroke:#231f20;stroke-miterlimit:10"/><line x1="118.61" y1="82.29" x2="133.07" y2="66.83" style="fill:#231f20;stroke:#231f20;stroke-miterlimit:10"/><circle cx="114.44" cy="93.68" r="11.4" style="fill:#ed1c24;stroke:#231f20;stroke-miterlimit:10"/><text transform="translate(110.89 97.91)" style="font-size:12px;fill:#fff;font-family:monospace">x</text><path d="M55.35,54.4H102.1" style="fill:none;stroke:#231f20;stroke-miterlimit:10"/><polygon points="100.64 59.39 109.28 54.4 100.64 49.42 100.64 59.39" style="fill:#231f20"/><line x1="22.17" y1="40.78" x2="22.17" y2="25.32" style="fill:#231f20;stroke:#231f20;stroke-miterlimit:10"/><line x1="167.16" y1="12.85" x2="167.16" style="fill:#231f20;stroke:#231f20;stroke-miterlimit:10"/><path d="M55.35,54.4H102.1" style="fill:none;stroke:#231f20;stroke-miterlimit:10"/><polygon points="100.64 59.39 109.28 54.4 100.64 49.42 100.64 59.39" style="fill:#231f20"/><line x1="22.17" y1="40.78" x2="22.17" y2="25.32" style="fill:#231f20;stroke:#231f20;stroke-miterlimit:10"/></svg>