<svg id="Layer_1" data-name="Layer 1" xmlns="http://www.w3.org/2000/svg" viewBox="0 0 202.94 73.26"><line x1="189.04" y1="51.05" x2="174.58" y2="35.59" style="fill:#231f20;stroke:#231f20;stroke-miterlimit:10"/><circle cx="40.34" cy="26.86" r="11.4" style="fill:#231f20;stroke:#231f20;stroke-miterlimit:10"/><circle cx="11.9" cy="59.92" r="11.4" style="fill:#ed1c24;stroke:#231f20;stroke-miterlimit:10"/><text transform="translate(8.34 64.15)" style="font-size:12px;fill:#fff;font-family:monospace">a</text><text transform="translate(37.04 31.06)" style="font-size:12px;fill:#fff;font-family:monospace">b</text><line x1="17.24" y1="49.92" x2="31.7" y2="34.46" style="fill:#231f20;stroke:#231f20;stroke-miterlimit:10"/><circle cx="40.34" cy="26.86" r="11.4" style="fill:#231f20;stroke:#231f20;stroke-miterlimit:10"/><circle cx="11.9" cy="59.92" r="11.4" style="fill:#ed1c24;stroke:#231f20;stroke-miterlimit:10"/><text transform="translate(8.34 64.15)" style="font-size:12px;fill:#fff;font-family:monospace">a</text><text transform="translate(37.04 31.06)" style="font-size:12px;fill:#fff;font-family:monospace">b</text><line x1="17.24" y1="49.92" x2="31.7" y2="34.46" style="fill:#231f20;stroke:#231f20;stroke-miterlimit:10"/><line x1="58.97" y1="49.6" x2="44.51" y2="34.14" style="fill:#231f20;stroke:#231f20;stroke-miterlimit:10"/><circle cx="60.97" cy="59.92" r="11.4" style="fill:#ed1c24;stroke:#231f20;stroke-miterlimit:10"/><text transform="translate(57.42 64.15)" style="font-size:12px;fill:#fff;font-family:monospace">x</text><line x1="40.34" y1="15.46" x2="40.34" style="fill:#231f20;stroke:#231f20;stroke-miterlimit:10"/><line x1="40.34" y1="15.46" x2="40.34" style="fill:#231f20;stroke:#231f20;stroke-miterlimit:10"/><path d="M74.51,37.3h46.74" style="fill:none;stroke:#231f20;stroke-miterlimit:10"/><polygon points="119.8 42.28 128.43 37.3 119.8 32.31 119.8 42.28" style="fill:#231f20"/><circle cx="170.41" cy="28.31" r="11.4" style="fill:#231f20;stroke:#231f20;stroke-miterlimit:10"/><circle cx="141.97" cy="61.37" r="11.4" style="fill:#ed1c24;stroke:#231f20;stroke-miterlimit:10"/><text transform="translate(138.42 65.59)" style="font-size:12px;fill:#fff;font-family:monospace">a</text><text transform="translate(167.12 32.51)" style="font-size:12px;fill:#fff;font-family:monospace">b</text><line x1="147.32" y1="51.37" x2="161.78" y2="35.91" style="fill:#231f20;stroke:#231f20;stroke-miterlimit:10"/><circle cx="170.41" cy="28.31" r="11.4" style="fill:#ed1c24;stroke:#231f20;stroke-miterlimit:10"/><circle cx="141.97" cy="61.37" r="11.4" style="fill:#231f20;stroke:#231f20;stroke-miterlimit:10"/><text transform="translate(138.42 65.59)" style="font-size:12px;fill:#fff;font-family:monospace">a</text><text transform="translate(167.12 32.51)" style="font-size:12px;fill:#fff;font-family:monospace">b</text><line x1="147.32" y1="51.37" x2="161.78" y2="35.91" style="fill:#231f20;stroke:#231f20;stroke-miterlimit:10"/><circle cx="191.04" cy="61.37" r="11.4" style="fill:#231f20;stroke:#231f20;stroke-miterlimit:10"/><text transform="translate(187.49 65.59)" style="font-size:12px;fill:#fff;font-family:monospace">x</text><line x1="170.41" y1="16.91" x2="170.41" y2="1.45" style="fill:#231f20;stroke:#231f20;stroke-miterlimit:10"/><line x1="170.41" y1="16.91" x2="170.41" y2="1.45" style="fill:#231f20;stroke:#231f20;stroke-miterlimit:10"/><text transform="translate(65.15 28.31)" style="font-size:10.242790222167969px;fill:#231f20;font-family:monospace">colorFlip(b)</text></svg>