<svg id="Layer_1" data-name="Layer 1" xmlns="http://www.w3.org/2000/svg" viewBox="0 0 217.83 105.58"><circle cx="64.61" cy="24.25" r="11.4" style="fill:#231f20;stroke:#231f20;stroke-miterlimit:10"/><circle cx="36.17" cy="57.31" r="11.4" style="fill:#ed1c24;stroke:#231f20;stroke-miterlimit:10"/><text transform="translate(32.62 61.54)" style="font-size:12px;fill:#fff;font-family:monospace">a</text><text transform="translate(61.31 28.45)" style="font-size:12px;fill:#fff;font-family:monospace">b</text><line x1="41.52" y1="47.32" x2="55.98" y2="31.86" style="fill:#231f20;stroke:#231f20;stroke-miterlimit:10"/><circle cx="64.61" cy="24.25" r="11.4" style="fill:#231f20;stroke:#231f20;stroke-miterlimit:10"/><circle cx="36.17" cy="57.31" r="11.4" style="fill:#ed1c24;stroke:#231f20;stroke-miterlimit:10"/><text transform="translate(32.62 61.54)" style="font-size:12px;fill:#fff;font-family:monospace">a</text><text transform="translate(61.31 28.45)" style="font-size:12px;fill:#fff;font-family:monospace">b</text><line x1="41.52" y1="47.32" x2="55.98" y2="31.86" style="fill:#231f20;stroke:#231f20;stroke-miterlimit:10"/><line x1="16.06" y1="82.29" x2="30.52" y2="66.83" style="fill:#231f20;stroke:#231f20;stroke-miterlimit:10"/><circle cx="11.9" cy="93.68" r="11.4" style="fill:#ed1c24;stroke:#231f20;stroke-miterlimit:10"/><text transform="translate(8.34 97.91)" style="font-size:12px;fill:#fff;font-family:monospace">x</text><line x1="64.61" y1="12.85" x2="64.61" style="fill:#231f20;stroke:#231f20;stroke-miterlimit:10"/><path d="M80.9,58h46.75" style="fill:none;stroke:#231f20;stroke-miterlimit:10"/><polygon points="126.19 63 134.82 58.02 126.19 53.03 126.19 63" style="fill:#231f20"/><circle cx="185.3" cy="46.75" r="11.4" style="fill:#231f20;stroke:#231f20;stroke-miterlimit:10"/><circle cx="156.86" cy="79.81" r="11.4" style="fill:#ed1c24;stroke:#231f20;stroke-miterlimit:10"/><text transform="translate(153.31 84.04)" style="font-size:12px;fill:#fff;font-family:monospace">a</text><text transform="translate(182 50.96)" style="font-size:12px;fill:#fff;font-family:monospace">b</text><line x1="162.2" y1="69.82" x2="176.66" y2="54.36" style="fill:#231f20;stroke:#231f20;stroke-miterlimit:10"/><circle cx="185.3" cy="46.75" r="11.4" style="fill:#231f20;stroke:#231f20;stroke-miterlimit:10"/><circle cx="156.86" cy="79.81" r="11.4" style="fill:#ed1c24;stroke:#231f20;stroke-miterlimit:10"/><text transform="translate(153.31 84.04)" style="font-size:12px;fill:#fff;font-family:monospace">x</text><text transform="translate(182 50.96)" style="font-size:12px;fill:#fff;font-family:monospace">a</text><line x1="162.2" y1="69.82" x2="176.66" y2="54.36" style="fill:#231f20;stroke:#231f20;stroke-miterlimit:10"/><line x1="203.93" y1="69.5" x2="189.47" y2="54.04" style="fill:#231f20;stroke:#231f20;stroke-miterlimit:10"/><circle cx="205.93" cy="79.81" r="11.4" style="fill:#ed1c24;stroke:#231f20;stroke-miterlimit:10"/><text transform="translate(202.38 84.04)" style="font-size:12px;fill:#fff;font-family:monospace">b</text><line x1="185.3" y1="35.35" x2="185.3" y2="19.89" style="fill:#231f20;stroke:#231f20;stroke-miterlimit:10"/><line x1="185.3" y1="35.35" x2="185.3" y2="19.89" style="fill:#231f20;stroke:#231f20;stroke-miterlimit:10"/><text transform="translate(79.59 45.91)" style="font-size:8.2618989944458px;fill:#231f20;font-family:monospace">rotateRight(b)</text></svg>