<svg id="Layer_1" data-name="Layer 1" xmlns="http://www.w3.org/2000/svg" viewBox="0 0 283.72 116.66"><circle cx="239.5" cy="28.7" r="11.4" style="fill:#fff;stroke:#231f20;stroke-miterlimit:10"/><circle cx="211.06" cy="61.76" r="11.4" style="fill:#ed1c24;stroke:#231f20;stroke-miterlimit:10"/><text transform="translate(207.5 65.98)" style="font-size:12px;fill:#fff;font-family:monospace">a</text><text transform="translate(236.2 32.9)" style="font-size:12px;fill:#231f20;font-family:monospace">b</text><line x1="191.09" y1="87.14" x2="205.55" y2="71.68" style="fill:#231f20;stroke:#231f20;stroke-miterlimit:10"/><line x1="228.1" y1="89.41" x2="216.4" y2="71.68" style="fill:#231f20;stroke:#231f20;stroke-miterlimit:10"/><line x1="257.52" y1="54" x2="247.37" y2="36.39" style="fill:#231f20;stroke:#231f20;stroke-miterlimit:10"/><ellipse cx="183.63" cy="100.64" rx="17.05" ry="14.58" style="fill:#fff;stroke:#231f20;stroke-miterlimit:10"/><text transform="translate(168.35 103.11)" style="font-size:7px;fill:#231f20;font-family:monospace">(..., a)</text><ellipse cx="228.1" cy="101.58" rx="17.05" ry="14.58" style="fill:#fff;stroke:#231f20;stroke-miterlimit:10"/><text transform="translate(216.4 103.9)" style="font-size:7px;fill:#231f20;font-family:monospace">(a, b)</text><ellipse cx="266.17" cy="66.57" rx="17.05" ry="14.58" style="fill:#fff;stroke:#231f20;stroke-miterlimit:10"/><text transform="translate(250.9 69.04)" style="font-size:7px;fill:#231f20;font-family:monospace">(b, ...)</text><line x1="216.4" y1="51.76" x2="230.86" y2="36.3" style="fill:#231f20;stroke:#231f20;stroke-miterlimit:10"/><line x1="239.5" y1="16.69" x2="239.5" y2="1.23" style="fill:#231f20;stroke:#231f20;stroke-miterlimit:10"/><circle cx="40.21" cy="27.46" r="11.4" style="fill:#fff;stroke:#231f20;stroke-miterlimit:10"/><circle cx="67.61" cy="60.52" r="11.4" style="fill:#ed1c24;stroke:#231f20;stroke-miterlimit:10"/><text transform="translate(36.91 29.96)" style="font-size:12px;fill:#231f20;font-family:monospace">a</text><text transform="translate(64.32 64)" style="font-size:12px;fill:#fff;font-family:monospace">b</text><line x1="88.62" y1="85.9" x2="74.16" y2="70.44" style="fill:#231f20;stroke:#231f20;stroke-miterlimit:10"/><line x1="51.61" y1="88.18" x2="63.31" y2="70.44" style="fill:#231f20;stroke:#231f20;stroke-miterlimit:10"/><line x1="22.19" y1="52.77" x2="32.34" y2="35.16" style="fill:#231f20;stroke:#231f20;stroke-miterlimit:10"/><ellipse cx="17.55" cy="67.28" rx="17.05" ry="14.58" style="fill:#fff;stroke:#231f20;stroke-miterlimit:10"/><text transform="translate(2.27 69.75)" style="font-size:7px;fill:#231f20;font-family:monospace">(..., a)</text><ellipse cx="45.54" cy="100.48" rx="17.05" ry="14.58" style="fill:#fff;stroke:#231f20;stroke-miterlimit:10"/><text transform="translate(33.84 102.81)" style="font-size:7px;fill:#231f20;font-family:monospace">(a, b)</text><ellipse cx="92.96" cy="100.48" rx="17.05" ry="14.58" style="fill:#fff;stroke:#231f20;stroke-miterlimit:10"/><text transform="translate(77.68 102.96)" style="font-size:7px;fill:#231f20;font-family:monospace">(b, ...)</text><line x1="63.31" y1="50.53" x2="48.85" y2="35.07" style="fill:#231f20;stroke:#231f20;stroke-miterlimit:10"/><line x1="40.21" y1="15.46" x2="40.21" style="fill:#231f20;stroke:#231f20;stroke-miterlimit:10"/><g style="opacity:0.3"><path d="M110.56,22.44H157.3" style="fill:none;stroke:#231f20;stroke-miterlimit:10"/><polygon points="155.84 27.42 164.48 22.43 155.84 17.45 155.84 27.42" style="fill:#231f20"/></g><text transform="translate(94.42 12.16)" style="opacity:0.3;font-size:12px;fill:#231f20;font-family:monospace">rotateLeft(a)</text><text transform="translate(94.42 58.7)" style="font-size:12px;fill:#231f20;font-family:monospace">rotateRight(b)</text><path d="M163.92,41.12H117.18" style="fill:none;stroke:#231f20;stroke-miterlimit:10"/><polygon points="118.64 36.13 110 41.12 118.64 46.1 118.64 36.13" style="fill:#231f20"/></svg>