<svg id="Layer_1" data-name="Layer 1" xmlns="http://www.w3.org/2000/svg" viewBox="0 0 251.94 115.43"><rect x="34.59" y="27.05" width="43.33" height="30.86" style="fill:#fff;stroke:#231f20;stroke-miterlimit:10"/><text transform="translate(46.36 46.55)" style="font-size:12px;fill:#231f20;font-family:monospace">a b</text><circle cx="207.72" cy="27.46" r="11.4" style="fill:#231f20;stroke:#231f20;stroke-miterlimit:10"/><circle cx="179.28" cy="60.52" r="11.4" style="fill:#ed1c24;stroke:#231f20;stroke-miterlimit:10"/><text transform="translate(175.72 64.75)" style="font-size:12px;fill:#fff;font-family:monospace">a</text><line x1="25.01" y1="73.37" x2="39.47" y2="57.91" style="fill:#231f20;stroke:#231f20;stroke-miterlimit:10"/><line x1="56.26" y1="73.37" x2="56.26" y2="57.91" style="fill:#231f20;stroke:#231f20;stroke-miterlimit:10"/><line x1="83.93" y1="75.52" x2="73.78" y2="57.91" style="fill:#231f20;stroke:#231f20;stroke-miterlimit:10"/><text transform="translate(204.42 31.67)" style="font-size:12px;fill:#fff;font-family:monospace">b</text><ellipse cx="17.55" cy="86.87" rx="17.05" ry="14.58" style="fill:#fff;stroke:#231f20;stroke-miterlimit:10"/><text transform="translate(2.27 89.34)" style="font-size:7px;fill:#231f20;font-family:monospace">(..., a)</text><ellipse cx="56.26" cy="88.09" rx="17.05" ry="14.58" style="fill:#fff;stroke:#231f20;stroke-miterlimit:10"/><text transform="translate(43.81 90.78)" style="font-size:7px;fill:#231f20;font-family:monospace">(a, b)</text><ellipse cx="92.59" cy="88.09" rx="17.05" ry="14.58" style="fill:#fff;stroke:#231f20;stroke-miterlimit:10"/><text transform="translate(77.31 90.56)" style="font-size:7px;fill:#231f20;font-family:monospace">(b, ...)</text><line x1="159.31" y1="85.9" x2="173.77" y2="70.44" style="fill:#231f20;stroke:#231f20;stroke-miterlimit:10"/><line x1="196.32" y1="88.18" x2="184.62" y2="70.44" style="fill:#231f20;stroke:#231f20;stroke-miterlimit:10"/><line x1="225.74" y1="52.77" x2="215.59" y2="35.16" style="fill:#231f20;stroke:#231f20;stroke-miterlimit:10"/><ellipse cx="151.85" cy="99.4" rx="17.05" ry="14.58" style="fill:#fff;stroke:#231f20;stroke-miterlimit:10"/><text transform="translate(136.57 101.87)" style="font-size:7px;fill:#231f20;font-family:monospace">(..., a)</text><ellipse cx="196.32" cy="100.34" rx="17.05" ry="14.58" style="fill:#fff;stroke:#231f20;stroke-miterlimit:10"/><text transform="translate(184.62 102.67)" style="font-size:7px;fill:#231f20;font-family:monospace">(a, b)</text><ellipse cx="234.39" cy="65.33" rx="17.05" ry="14.58" style="fill:#fff;stroke:#231f20;stroke-miterlimit:10"/><text transform="translate(219.12 67.8)" style="font-size:7px;fill:#231f20;font-family:monospace">(b, ...)</text><line x1="184.62" y1="50.53" x2="199.08" y2="35.07" style="fill:#231f20;stroke:#231f20;stroke-miterlimit:10"/><path d="M110.1,40.33h39.57" style="fill:none;stroke:#231f20;stroke-miterlimit:10"/><polygon points="111.56 45.31 102.93 40.33 111.56 35.34 111.56 45.31" style="fill:#231f20"/><polygon points="148.21 45.31 156.85 40.33 148.21 35.34 148.21 45.31" style="fill:#231f20"/><line x1="56.26" y1="27.05" x2="56.26" y2="11.59" style="fill:#231f20;stroke:#231f20;stroke-miterlimit:10"/><line x1="207.72" y1="15.46" x2="207.72" style="fill:#231f20;stroke:#231f20;stroke-miterlimit:10"/></svg>