<?xml version="1.0" encoding="UTF-8"?><svg id="Layer_1" xmlns="http://www.w3.org/2000/svg" viewBox="0 0 292.06 141.51"><rect x=".5" y="113.35" width="18.19" height="18.19" style="fill:none; stroke:#231f20; stroke-miterlimit:10;"/><rect x="55.07" y="113.35" width="18.19" height="18.19" style="fill:none; stroke:#231f20; stroke-miterlimit:10;"/><rect x="36.88" y="113.35" width="18.19" height="18.19" style="fill:none; stroke:#231f20; stroke-miterlimit:10;"/><rect x="18.69" y="113.35" width="18.19" height="18.19" style="fill:none; stroke:#231f20; stroke-miterlimit:10;"/><rect x="73.26" y="113.35" width="18.19" height="18.19" style="fill:none; stroke:#231f20; stroke-miterlimit:10;"/><rect x="127.84" y="113.35" width="18.19" height="18.19" style="fill:none; stroke:#231f20; stroke-miterlimit:10;"/><rect x="109.65" y="113.35" width="18.19" height="18.19" style="fill:none; stroke:#231f20; stroke-miterlimit:10;"/><rect x="91.46" y="113.35" width="18.19" height="18.19" style="fill:none; stroke:#231f20; stroke-miterlimit:10;"/><rect x="146.03" y="113.35" width="18.19" height="18.19" style="fill:none; stroke:#231f20; stroke-miterlimit:10;"/><rect x="200.6" y="113.35" width="18.19" height="18.19" style="fill:none; stroke:#231f20; stroke-miterlimit:10;"/><rect x="182.41" y="113.35" width="18.19" height="18.19" style="fill:none; stroke:#231f20; stroke-miterlimit:10;"/><rect x="164.22" y="113.35" width="18.19" height="18.19" style="fill:none; stroke:#231f20; stroke-miterlimit:10;"/><rect x="218.79" y="113.35" width="18.19" height="18.19" style="fill:none; stroke:#231f20; stroke-miterlimit:10;"/><rect x="273.37" y="113.35" width="18.19" height="18.19" style="fill:none; stroke:#231f20; stroke-miterlimit:10;"/><rect x="255.18" y="113.35" width="18.19" height="18.19" style="fill:none; stroke:#231f20; stroke-miterlimit:10;"/><rect x="236.99" y="113.35" width="18.19" height="18.19" style="fill:none; stroke:#231f20; stroke-miterlimit:10;"/><line x1=".5" y1="131.54" x2="18.69" y2="113.35" style="fill:none; stroke:#231f20; stroke-miterlimit:10;"/><text transform="translate(24.47 126.17)" style="fill:#231f20; font-family:Consolas, Consolas; font-size:12px;"><tspan x="0" y="0">A</tspan></text><text transform="translate(144.47 14.76)" style="fill:#231f20; font-family:Consolas, Consolas; font-size:12px;"><tspan x="0" y="0">A</tspan></text><text transform="translate(43.09 126.17)" style="fill:#231f20; font-family:Consolas, Consolas; font-size:12px;"><tspan x="0" y="0">B</tspan></text><text transform="translate(60.55 126.26)" style="fill:#231f20; font-family:Consolas, Consolas; font-size:12px;"><tspan x="0" y="0">C</tspan></text><text transform="translate(79.22 126.17)" style="fill:#231f20; font-family:Consolas, Consolas; font-size:12px;"><tspan x="0" y="0">D</tspan></text><text transform="translate(97.15 126.17)" style="fill:#231f20; font-family:Consolas, Consolas; font-size:12px;"><tspan x="0" y="0">E</tspan></text><text transform="translate(115.53 126.17)" style="fill:#231f20; font-family:Consolas, Consolas; font-size:12px;"><tspan x="0" y="0">F</tspan></text><text transform="translate(133.84 126.17)" style="fill:#231f20; font-family:Consolas, Consolas; font-size:12px;"><tspan x="0" y="0">G</tspan></text><text transform="translate(152.38 126.17)" style="fill:#231f20; font-family:Consolas, Consolas; font-size:12px;"><tspan x="0" y="0">H</tspan></text><text transform="translate(170.7 126.17)" style="fill:#231f20; font-family:Consolas, Consolas; font-size:12px;"><tspan x="0" y="0">I</tspan></text><text transform="translate(188.53 126.17)" style="fill:#231f20; font-family:Consolas, Consolas; font-size:12px;"><tspan x="0" y="0">J</tspan></text><text transform="translate(206.38 126.17)" style="fill:#231f20; font-family:Consolas, Consolas; font-size:12px;"><tspan x="0" y="0">K</tspan></text><text transform="translate(225.13 126.17)" style="fill:#231f20; font-family:Consolas, Consolas; font-size:12px;"><tspan x="0" y="0">L</tspan></text><line x1="236.99" y1="131.54" x2="255.18" y2="113.35" style="fill:none; stroke:#231f20; stroke-miterlimit:10;"/><line x1="255.18" y1="131.54" x2="273.37" y2="113.35" style="fill:none; stroke:#231f20; stroke-miterlimit:10;"/><line x1="273.37" y1="131.54" x2="291.56" y2="113.35" style="fill:none; stroke:#231f20; stroke-miterlimit:10;"/><text transform="translate(7.33 139.27)" style="fill:#231f20; font-family:Consolas, Consolas; font-size:7px;"><tspan x="0" y="0">0</tspan></text><text transform="translate(25.19 139.33)" style="fill:#231f20; font-family:Consolas, Consolas; font-size:7px;"><tspan x="0" y="0">1</tspan></text><text transform="translate(44.2 139.33)" style="fill:#231f20; font-family:Consolas, Consolas; font-size:7px;"><tspan x="0" y="0">2</tspan></text><text transform="translate(61.93 139.33)" style="fill:#231f20; font-family:Consolas, Consolas; font-size:7px;"><tspan x="0" y="0">3</tspan></text><text transform="translate(80.33 139.4)" style="fill:#231f20; font-family:Consolas, Consolas; font-size:7px;"><tspan x="0" y="0">4</tspan></text><text transform="translate(98.52 139.27)" style="fill:#231f20; font-family:Consolas, Consolas; font-size:7px;"><tspan x="0" y="0">5</tspan></text><text transform="translate(116.73 139.27)" style="fill:#231f20; font-family:Consolas, Consolas; font-size:7px;"><tspan x="0" y="0">6</tspan></text><text transform="translate(134.99 139.27)" style="fill:#231f20; font-family:Consolas, Consolas; font-size:7px;"><tspan x="0" y="0">7</tspan></text><text transform="translate(153.86 139.27)" style="fill:#231f20; font-family:Consolas, Consolas; font-size:7px;"><tspan x="0" y="0">8</tspan></text><text transform="translate(171.51 139.4)" style="fill:#231f20; font-family:Consolas, Consolas; font-size:7px;"><tspan x="0" y="0">9</tspan></text><text transform="translate(187.85 139.27)" style="fill:#231f20; font-family:Consolas, Consolas; font-size:7px;"><tspan x="0" y="0">10</tspan></text><text transform="translate(206.17 139.4)" style="fill:#231f20; font-family:Consolas, Consolas; font-size:7px;"><tspan x="0" y="0">11</tspan></text><text transform="translate(224.12 139.4)" style="fill:#231f20; font-family:Consolas, Consolas; font-size:7px;"><tspan x="0" y="0">12</tspan></text><text transform="translate(242.75 139.33)" style="fill:#231f20; font-family:Consolas, Consolas; font-size:7px;"><tspan x="0" y="0">13</tspan></text><text transform="translate(260.55 139.4)" style="fill:#231f20; font-family:Consolas, Consolas; font-size:7px;"><tspan x="0" y="0">14</tspan></text><text transform="translate(278.91 139.27)" style="fill:#231f20; font-family:Consolas, Consolas; font-size:7px;"><tspan x="0" y="0">15</tspan></text><circle cx="148.06" cy="10.78" r="10.28" style="fill:none; stroke:#231f20; stroke-miterlimit:10;"/><text transform="translate(74.92 32.07)" style="fill:#231f20; font-family:Consolas, Consolas; font-size:12px;"><tspan x="0" y="0">B</tspan></text><circle cx="78.51" cy="28.09" r="10.28" style="fill:none; stroke:#231f20; stroke-miterlimit:10;"/><text transform="translate(41.14 57.15)" style="fill:#231f20; font-family:Consolas, Consolas; font-size:12px;"><tspan x="0" y="0">D</tspan></text><circle cx="44.73" cy="53.16" r="10.28" style="fill:none; stroke:#231f20; stroke-miterlimit:10;"/><text transform="translate(20.05 84.3)" style="fill:#231f20; font-family:Consolas, Consolas; font-size:12px;"><tspan x="0" y="0">H</tspan></text><circle cx="23.64" cy="80.32" r="10.28" style="fill:none; stroke:#231f20; stroke-miterlimit:10;"/><text transform="translate(60.34 84.3)" style="fill:#231f20; font-family:Consolas, Consolas; font-size:12px;"><tspan x="0" y="0">I</tspan></text><circle cx="63.93" cy="80.32" r="10.28" style="fill:none; stroke:#231f20; stroke-miterlimit:10;"/><text transform="translate(110.13 57.15)" style="fill:#231f20; font-family:Consolas, Consolas; font-size:12px;"><tspan x="0" y="0">E</tspan></text><circle cx="113.72" cy="53.16" r="10.28" style="fill:none; stroke:#231f20; stroke-miterlimit:10;"/><text transform="translate(89.05 84.3)" style="fill:#231f20; font-family:Consolas, Consolas; font-size:12px;"><tspan x="0" y="0">J</tspan></text><circle cx="92.64" cy="80.32" r="10.28" style="fill:none; stroke:#231f20; stroke-miterlimit:10;"/><text transform="translate(178.48 84.3)" style="fill:#231f20; font-family:Consolas, Consolas; font-size:12px;"><tspan x="0" y="0">L</tspan></text><circle cx="182.07" cy="80.32" r="10.28" style="fill:none; stroke:#231f20; stroke-miterlimit:10;"/><text transform="translate(129.33 84.3)" style="fill:#231f20; font-family:Consolas, Consolas; font-size:12px;"><tspan x="0" y="0">K</tspan></text><circle cx="132.92" cy="80.32" r="10.28" style="fill:none; stroke:#231f20; stroke-miterlimit:10;"/><text transform="translate(230.85 32.07)" style="fill:#231f20; font-family:Consolas, Consolas; font-size:12px;"><tspan x="0" y="0">C</tspan></text><circle cx="234.44" cy="28.09" r="10.28" style="fill:none; stroke:#231f20; stroke-miterlimit:10;"/><text transform="translate(203.58 57.15)" style="fill:#231f20; font-family:Consolas, Consolas; font-size:12px;"><tspan x="0" y="0">F</tspan></text><circle cx="207.17" cy="53.16" r="10.28" style="fill:none; stroke:#231f20; stroke-miterlimit:10;"/><text transform="translate(261.86 57.15)" style="fill:#231f20; font-family:Consolas, Consolas; font-size:12px;"><tspan x="0" y="0">G</tspan></text><circle cx="265.45" cy="53.16" r="10.28" style="fill:none; stroke:#231f20; stroke-miterlimit:10;"/><line x1="138.58" y1="14.76" x2="88.78" y2="25.73" style="fill:#231f20; stroke:#231f20; stroke-miterlimit:10; stroke-width:.5px;"/><line x1="158.33" y1="14.76" x2="224.59" y2="25.73" style="fill:#231f20; stroke:#231f20; stroke-miterlimit:10; stroke-width:.5px;"/><line x1="226.5" y1="34.61" x2="213.67" y2="45.2" style="fill:#231f20; stroke:#231f20; stroke-miterlimit:10; stroke-width:.5px;"/><line x1="199.53" y1="60.02" x2="187.21" y2="71.44" style="fill:#231f20; stroke:#231f20; stroke-miterlimit:10; stroke-width:.5px;"/><line x1="243.21" y1="32.07" x2="259.55" y2="44.75" style="fill:#231f20; stroke:#231f20; stroke-miterlimit:10; stroke-width:.5px;"/><line x1="69.53" y1="33.09" x2="51.22" y2="45.2" style="fill:#231f20; stroke:#231f20; stroke-miterlimit:10; stroke-width:.5px;"/><line x1="87.48" y1="33.09" x2="107.23" y2="45.2" style="fill:#231f20; stroke:#231f20; stroke-miterlimit:10; stroke-width:.5px;"/><line x1="36.88" y1="60.02" x2="28.6" y2="70.04" style="fill:#231f20; stroke:#231f20; stroke-miterlimit:10; stroke-width:.5px;"/><line x1="52.37" y1="60.02" x2="58.77" y2="71.44" style="fill:#231f20; stroke:#231f20; stroke-miterlimit:10; stroke-width:.5px;"/><line x1="106.08" y1="60.02" x2="97.35" y2="71.2" style="fill:#231f20; stroke:#231f20; stroke-miterlimit:10; stroke-width:.5px;"/><line x1="122.64" y1="60.02" x2="128.77" y2="70.04" style="fill:#231f20; stroke:#231f20; stroke-miterlimit:10; stroke-width:.5px;"/></svg>